PathFileType	4	(X/Y/Z)	 2.5Hzlow3min.trc
DataRate	CameraRate	NumFrames	NumMarkers	Units	OrigDataRate	OrigDataStartFrame	OrigNumFrames
200	200	8	35	m	200	751	1000
Frame#	Time	C7			LSH			RSH			MAN			RASI			LASI			HIPR			HIPL			RPSI			LPSI			COX			RTHI1			RTHI2			RTHI3			RTHI4			RSHA1			RSHA2			RSHA3			RSHA4			RHEEL			RMET5			RMET1			RTOE			LTHI1			LTHI2			LTHI3			LTHI4			LSHA1			LSHA2			LSHA3			LSHA4			LHEEL			LMET5			LMET1			LTOE			
		X1	Y1	Z1	X2	Y2	Z2	X3	Y3	Z3	X4	Y4	Z4	X5	Y5	Z5	X6	Y6	Z6	X7	Y7	Z7	X8	Y8	Z8	X9	Y9	Z9	X10	Y10	Z10	X11	Y11	Z11	X12	Y12	Z12	X13	Y13	Z13	X14	Y14	Z14	X15	Y15	Z15	X16	Y16	Z16	X17	Y17	Z17	X18	Y18	Z18	X19	Y19	Z19	X20	Y20	Z20	X21	Y21	Z21	X22	Y22	Z22	X23	Y23	Z23	X24	Y24	Z24	X25	Y25	Z25	X26	Y26	Z26	X27	Y27	Z27	X28	Y28	Z28	X29	Y29	Z29	X30	Y30	Z30	X31	Y31	Z31	X32	Y32	Z32	X33	Y33	Z33	X34	Y34	Z34	X35	Y35	Z35	
751	3.7550	-0.280011	1.611741	-0.536919	-0.257765	1.583035	-0.766303	-0.232490	1.583662	-0.342534	-0.139503	1.529502	-0.555424	-0.151933	1.083059	-0.432744	-0.162064	1.078207	-0.660556	-0.216481	1.146014	-0.380466	-0.247099	1.142637	-0.708176	-0.338250	1.112803	-0.478810	-0.345995	1.112239	-0.588163	-0.348299	1.117321	-0.532365	-0.220416	0.879153	-0.345687	-0.203345	0.822583	-0.333247	-0.141165	0.834465	-0.347635	-0.150395	0.893933	-0.361731	-0.330694	0.331006	-0.315755	-0.347538	0.292050	-0.323537	-0.289823	0.274579	-0.326169	-0.277536	0.312275	-0.322571	-0.455729	0.079515	-0.371465	-0.280467	0.024858	-0.292909	-0.232777	0.041960	-0.386383	-0.200720	0.030306	-0.382515	-0.234997	0.829109	-0.746798	-0.210481	0.773189	-0.756754	-0.148671	0.794261	-0.757370	-0.165403	0.850858	-0.748291	-0.345361	0.311232	-0.740849	-0.361672	0.275311	-0.732724	-0.302205	0.254170	-0.735107	-0.293334	0.297328	-0.744507	-0.458979	0.080746	-0.669106	-0.290488	0.025048	-0.766623	-0.238965	0.041799	-0.690390	-0.204438	0.029565	-0.695874	
752	3.7600	-0.279920	1.612190	-0.536806	-0.257867	1.583586	-0.766276	-0.232107	1.584019	-0.342396	-0.139432	1.529960	-0.555532	-0.151562	1.083352	-0.432812	-0.161904	1.078381	-0.660516	-0.216059	1.146511	-0.380493	-0.246785	1.143013	-0.708296	-0.337912	1.113421	-0.478757	-0.345782	1.112857	-0.588150	-0.348078	1.117878	-0.532295	-0.220365	0.879523	-0.345839	-0.203378	0.822930	-0.333346	-0.141170	0.834763	-0.347590	-0.150312	0.894236	-0.361684	-0.330690	0.331460	-0.315740	-0.347571	0.292499	-0.323479	-0.289773	0.274944	-0.326191	-0.277473	0.312785	-0.322586	-0.455581	0.079880	-0.371330	-0.280436	0.024858	-0.292916	-0.232707	0.041891	-0.386445	-0.200717	0.030225	-0.382566	-0.234986	0.829441	-0.746544	-0.210521	0.773472	-0.756380	-0.148691	0.794489	-0.756992	-0.165369	0.851117	-0.748042	-0.345218	0.311580	-0.740265	-0.361533	0.275657	-0.732158	-0.302067	0.254520	-0.734554	-0.293195	0.297680	-0.743922	-0.458736	0.081118	-0.668626	-0.290538	0.025155	-0.766346	-0.238816	0.041761	-0.690282	-0.204346	0.029574	-0.695833	
753	3.7650	-0.279876	1.612992	-0.536713	-0.258028	1.584542	-0.766237	-0.231818	1.584804	-0.342269	-0.139377	1.530798	-0.555647	-0.151098	1.084032	-0.432911	-0.161665	1.079039	-0.660482	-0.215401	1.147438	-0.380550	-0.246347	1.143868	-0.708404	-0.337472	1.114432	-0.478665	-0.345491	1.113862	-0.588111	-0.347768	1.118792	-0.532202	-0.220310	0.880243	-0.345974	-0.203441	0.823653	-0.333454	-0.141192	0.835367	-0.347582	-0.150218	0.894854	-0.361670	-0.330789	0.332190	-0.315595	-0.347702	0.293203	-0.323310	-0.289774	0.275594	-0.326136	-0.277474	0.313487	-0.322515	-0.455373	0.080534	-0.371117	-0.280382	0.024856	-0.292911	-0.232631	0.041805	-0.386513	-0.200733	0.030128	-0.382630	-0.234944	0.830156	-0.746313	-0.210521	0.774148	-0.756032	-0.148673	0.795103	-0.756593	-0.165299	0.851765	-0.747768	-0.345110	0.312219	-0.739767	-0.361415	0.276286	-0.731689	-0.301949	0.255173	-0.734099	-0.293083	0.298333	-0.743427	-0.458429	0.081776	-0.668286	-0.290568	0.025265	-0.766076	-0.238659	0.041727	-0.690192	-0.204262	0.029584	-0.695788	
754	3.7700	-0.279876	1.614141	-0.536644	-0.258250	1.585892	-0.766187	-0.231635	1.585950	-0.342217	-0.139339	1.532009	-0.555766	-0.150533	1.085090	-0.433038	-0.161358	1.080096	-0.660452	-0.214519	1.148780	-0.380629	-0.245807	1.145191	-0.708480	-0.336936	1.115828	-0.478529	-0.345116	1.115215	-0.588045	-0.347370	1.120051	-0.532068	-0.220252	0.881318	-0.346107	-0.203525	0.824728	-0.333561	-0.141227	0.836279	-0.347607	-0.150110	0.895791	-0.361689	-0.330972	0.333180	-0.315373	-0.347935	0.294176	-0.323058	-0.289818	0.276530	-0.326031	-0.277522	0.314428	-0.322340	-0.455097	0.081463	-0.370854	-0.280308	0.024852	-0.292896	-0.232556	0.041695	-0.386587	-0.200756	0.030051	-0.382692	-0.234874	0.831240	-0.746116	-0.210487	0.775192	-0.755716	-0.148621	0.796087	-0.756182	-0.165199	0.852781	-0.747478	-0.345049	0.313140	-0.739375	-0.361336	0.277193	-0.731321	-0.301862	0.256118	-0.733750	-0.293014	0.299282	-0.743033	-0.458061	0.082715	-0.668102	-0.290574	0.025379	-0.765820	-0.238501	0.041697	-0.690128	-0.204190	0.029592	-0.695739	
755	3.7750	-0.279917	1.615633	-0.536595	-0.258520	1.587623	-0.766128	-0.231533	1.587472	-0.342203	-0.139322	1.533588	-0.555885	-0.149860	1.086524	-0.433192	-0.160998	1.081553	-0.660426	-0.213456	1.150508	-0.380715	-0.245242	1.146967	-0.708551	-0.336304	1.117597	-0.478355	-0.344662	1.116936	-0.587962	-0.346887	1.121684	-0.531924	-0.220178	0.882772	-0.346233	-0.203617	0.826134	-0.333667	-0.141265	0.837507	-0.347663	-0.149985	0.897035	-0.361735	-0.331213	0.334425	-0.315115	-0.348251	0.295442	-0.322719	-0.289910	0.277758	-0.325872	-0.277591	0.315661	-0.322104	-0.454750	0.082667	-0.370530	-0.280216	0.024846	-0.292874	-0.232488	0.041576	-0.386645	-0.200786	0.029992	-0.382752	-0.234779	0.832686	-0.745956	-0.210433	0.776599	-0.755442	-0.148547	0.797419	-0.755778	-0.165074	0.854143	-0.747185	-0.345047	0.314339	-0.739096	-0.361305	0.278366	-0.731069	-0.301815	0.257345	-0.733519	-0.293001	0.300517	-0.742760	-0.457634	0.083916	-0.668081	-0.290550	0.025493	-0.765586	-0.238350	0.041668	-0.690086	-0.204127	0.029596	-0.695686	
756	3.7800	-0.279993	1.617458	-0.536564	-0.258832	1.589712	-0.766066	-0.231482	1.589368	-0.342216	-0.139337	1.535552	-0.556002	-0.149092	1.088326	-0.433370	-0.160568	1.083409	-0.660427	-0.212247	1.152606	-0.380815	-0.244641	1.149164	-0.708600	-0.335575	1.119716	-0.478155	-0.344126	1.118995	-0.587852	-0.346320	1.123664	-0.531768	-0.220086	0.884568	-0.346337	-0.203689	0.827864	-0.333770	-0.141298	0.839040	-0.347745	-0.149832	0.898594	-0.361803	-0.331495	0.335876	-0.314883	-0.348586	0.296955	-0.322323	-0.290048	0.279267	-0.325669	-0.277697	0.317186	-0.321773	-0.454329	0.084137	-0.370163	-0.280107	0.024838	-0.292850	-0.232418	0.041460	-0.386697	-0.200822	0.029950	-0.382810	-0.234672	0.834482	-0.745834	-0.210378	0.778353	-0.755213	-0.148465	0.799082	-0.755394	-0.164933	0.855836	-0.746901	-0.345115	0.315788	-0.738925	-0.361328	0.279791	-0.730928	-0.301809	0.258844	-0.733413	-0.293048	0.302038	-0.742609	-0.457149	0.085373	-0.668219	-0.290492	0.025609	-0.765375	-0.238210	0.041642	-0.690067	-0.204077	0.029600	-0.695633	
757	3.7850	-0.280101	1.619598	-0.536550	-0.259175	1.592135	-0.766004	-0.231469	1.591614	-0.342258	-0.139384	1.537888	-0.556117	-0.148244	1.090484	-0.433560	-0.160069	1.085595	-0.660455	-0.210942	1.155073	-0.380915	-0.244008	1.151728	-0.708624	-0.334764	1.122158	-0.477925	-0.343519	1.121373	-0.587713	-0.345672	1.125953	-0.531589	-0.219959	0.886689	-0.346413	-0.203767	0.829937	-0.333878	-0.141317	0.840860	-0.347841	-0.149641	0.900452	-0.361889	-0.331803	0.337526	-0.314693	-0.348865	0.298620	-0.322039	-0.290220	0.281075	-0.325408	-0.277851	0.319096	-0.321391	-0.453794	0.085832	-0.369690	-0.279983	0.024831	-0.292828	-0.232423	0.041392	-0.386668	-0.200869	0.029932	-0.382865	-0.234566	0.836614	-0.745744	-0.210343	0.780441	-0.755025	-0.148396	0.801057	-0.755047	-0.164788	0.857840	-0.746642	-0.345250	0.317479	-0.738865	-0.361402	0.281451	-0.730904	-0.301845	0.260610	-0.733438	-0.293158	0.303822	-0.742582	-0.456602	0.087066	-0.668510	-0.290403	0.025730	-0.765188	-0.238085	0.041612	-0.690063	-0.204037	0.029597	-0.695582	
758	3.7900	-0.280237	1.622034	-0.536549	-0.259546	1.594868	-0.765943	-0.231482	1.594181	-0.342328	-0.139459	1.540574	-0.556232	-0.147306	1.092971	-0.433751	-0.159531	1.088091	-0.660488	-0.209576	1.157888	-0.381015	-0.243352	1.154612	-0.708617	-0.333875	1.124894	-0.477671	-0.342835	1.124034	-0.587551	-0.344949	1.128545	-0.531389	-0.219785	0.889131	-0.346479	-0.203814	0.832281	-0.333977	-0.141318	0.842966	-0.347947	-0.149410	0.902599	-0.361989	-0.332154	0.339410	-0.314513	-0.349127	0.300457	-0.321819	-0.290425	0.283159	-0.325096	-0.278234	0.321176	-0.321176	-0.453135	0.087731	-0.369098	-0.279845	0.024837	-0.292819	-0.232455	0.041336	-0.386608	-0.200924	0.029933	-0.382912	-0.234472	0.839065	-0.745682	-0.210350	0.782840	-0.754878	-0.148364	0.803320	-0.754758	-0.164653	0.860130	-0.746422	-0.345454	0.319411	-0.738943	-0.361526	0.283322	-0.730988	-0.301922	0.262611	-0.733581	-0.293331	0.305852	-0.742682	-0.455983	0.088980	-0.668931	-0.290287	0.025855	-0.765023	-0.237970	0.041575	-0.690074	-0.204010	0.029592	-0.695533	
